<svg xmlns="http://www.w3.org/2000/svg" width="400" height="340"><linearGradient id="grad1" x1="0%" y1="0%" x2="100%" y2="0%"><stop offset="0%" style="stop-color:#5b9cd2;stop-opacity:1" /><stop offset="100%" style="stop-color:#28bef0;stop-opacity:1" /></linearGradient><path fill="url(#grad1)" d="M259.70116505295596,261.70422926501647C240.69926442565196,279.5387418226679,244.63215069062815,321.00136698381164,228.86823451018728,327.0070753459085C213.1043183297464,333.0127837080054,188.1317599522189,308.34112683431385,165.11766797031078,297.73847943759773C142.10357598840264,287.1358320408816,104.78157593104538,284.1650595305349,90.78368261873838,263.3911909656117C76.78578930643138,242.6173224006885,70.9987009914018,197.19346140662554,81.13030809646875,173.09526804805841C91.2619152015357,148.99707468949128,127.57403222479873,125.28193956947182,151.57332524914005,118.802030814209C175.5726182734814,112.32212205894619,200.20240844290777,130.09195251369675,225.1260662425167,134.21581551648154C250.04972404212566,138.33967851926633,281.48967670821133,129.24784475033138,301.11527204679373,143.5452088309178C320.74086738537613,157.84257291150422,349.7819894396509,200.30682992765023,342.87963827401126,220C335.9772871083716,239.69317007234977,278.70306568025995,243.86971670736506,259.70116505295596,261.70422926501647" stroke="none" stroke-width="3"/></svg>